<?xml version="1.0" encoding="UTF-8"?>
<svg width="60px" height="59px" viewBox="0 0 60 59" version="1.1" xmlns="http://www.w3.org/2000/svg">
    <path
        d="M19.2472217,35.6466016 C14.6241089,35.9439062 10.4285073,37.7046875 8.04781157,43.9780469 C7.77701607,44.6936523 7.12595457,45.1280859 6.36657487,45.1280859 C5.08634597,45.1280859 1.1281225,41.9395508 0,41.1697852 C0.00115232124,50.6593359 4.3719068,59 14.7508642,59 C23.4923732,59 29.5005762,53.9561914 29.5005762,45.1499805 C29.5005762,44.7916016 29.4256753,44.4493555 29.388801,44.0978906 L19.2472217,35.6466016 L19.2472217,35.6466016 Z M52.7647898,0 C51.0178707,0 49.3804223,0.773222656 48.131306,1.89560547 C24.5767075,22.9374023 22.1257202,23.4317578 22.1257202,29.6256055 C22.1257202,31.2043164 22.5002246,32.7092773 23.1316966,34.0851758 L30.4858108,40.2133398 C31.3166344,40.4207617 32.1728091,40.5625 33.0658581,40.5625 C40.2229253,40.5625 44.3712818,35.322793 57.3982735,11.0094922 C58.2486865,9.35587891 59,7.56974609 59,5.70986328 C59,2.3784375 56.0039648,0 52.7647898,0 Z"
        fill="#00000099"
        fill-rule="nonzero"
    />
</svg>